<?xml version="1.0" encoding="UTF-8"?><svg id="a" xmlns="http://www.w3.org/2000/svg" viewBox="0 0 83.32 39.38"><polygon points="81.06 23.66 3.6 29.35 0 0 83.32 .86 81.06 23.66" fill="#0473ba"/><path d="M7.08,36.46c0,1.06-.84,1.87-1.94,1.87h-1.5v-3.74h1.51c1.09,0,1.92.81,1.92,1.87ZM6.65,36.46c0-.84-.66-1.48-1.5-1.48h-1.07v2.95h1.09c.83,0,1.49-.63,1.49-1.47Z" fill="#090400"/><path d="M10.37,37.08h-2.3c.07.56.47.92,1.02.92.35,0,.65-.13.87-.36l.23.24c-.27.29-.66.47-1.13.47-.83,0-1.4-.58-1.4-1.42s.58-1.42,1.4-1.42c.91,0,1.36.63,1.32,1.58ZM10,36.75c-.03-.55-.39-.9-.94-.9s-.93.35-.98.9h1.92Z" fill="#090400"/><path d="M11.95,35.85c-.32,0-.56.11-.56.38,0,.64,1.57.31,1.57,1.32,0,.55-.49.8-1.03.8-.4,0-.81-.14-1.08-.4l.16-.3c.24.22.6.36.94.36s.6-.13.6-.41c.02-.68-1.56-.34-1.56-1.33,0-.53.47-.76.98-.76.34,0,.66.1.9.26l-.16.32c-.22-.14-.5-.22-.76-.22Z" fill="#090400"/><path d="M14.27,34.71c0,.16-.12.28-.27.28s-.27-.12-.27-.28.12-.28.27-.28.27.12.27.28ZM14.21,35.52v2.81h-.41v-2.81h.41Z" fill="#090400"/><path d="M17.82,35.52v2.52c0,.82-.56,1.34-1.42,1.34-.44,0-.81-.15-1.15-.41l.19-.3c.28.23.57.35.95.36.61,0,1.02-.38,1.02-.97v-.43c-.2.37-.56.59-1.04.59-.76,0-1.28-.56-1.28-1.36s.52-1.34,1.27-1.35c.48,0,.84.21,1.05.59v-.57h.42ZM17.41,36.86c0-.59-.4-1.01-.96-1.01s-.96.42-.97,1.01c0,.58.4,1.01.97,1.01s.96-.42.96-1.01Z" fill="#090400"/><path d="M21.49,36.6v1.73h-.42v-1.63c0-.5-.3-.8-.8-.8-.56,0-.9.37-.95.92v1.51h-.42v-2.81h.42v.62c.2-.43.58-.63,1.09-.64.67,0,1.07.41,1.07,1.1Z" fill="#090400"/><path d="M26.87,38.39l-.63-.62c-.34.37-.74.57-1.16.57-.62,0-1.11-.43-1.11-1.02,0-.54.41-.82.85-1.06-.26-.34-.39-.62-.39-.89,0-.47.37-.8.91-.8s.87.31.87.75c0,.51-.46.77-.93,1.02.23.27.53.58.92.95.14-.2.27-.45.38-.73l.28.21c-.12.28-.27.54-.42.75l.65.64-.22.22ZM26.01,37.54c-.42-.42-.75-.76-1.01-1.05-.37.2-.68.43-.68.81,0,.42.34.72.78.72.32,0,.64-.17.91-.48ZM25.11,36.12c.41-.21.77-.42.77-.8,0-.28-.2-.47-.52-.47-.35,0-.57.23-.57.52,0,.22.11.45.33.74Z" fill="#090400"/><path d="M32.32,35.84c0,.82-.53,1.3-1.46,1.3h-.98v1.19h-.43v-3.74h1.41c.93,0,1.46.46,1.46,1.26ZM31.91,35.85c0-.57-.39-.87-1.06-.87h-.96v1.76h.96c.67,0,1.06-.3,1.06-.89Z" fill="#090400"/><path d="M34.87,38.33v-.44c-.22.3-.58.45-1.03.45-.58,0-.96-.37-.96-.85s.39-.8,1.05-.81h.93v-.18c0-.41-.26-.66-.75-.66-.31,0-.6.12-.89.33l-.18-.29c.36-.24.67-.38,1.15-.38.7,0,1.08.37,1.09.97v1.86s-.4,0-.4,0ZM34.86,37.36v-.34h-.88c-.47,0-.72.14-.72.46s.25.52.65.52c.48,0,.84-.24.95-.64Z" fill="#090400"/><path d="M37.48,35.88c-.58,0-1,.43-1,1.05s.42,1.05,1,1.05c.37,0,.67-.13.87-.36l.24.25c-.25.3-.64.49-1.13.49-.82,0-1.4-.58-1.4-1.42s.58-1.42,1.4-1.42c.45,0,.83.16,1.09.42l-.23.29c-.21-.21-.5-.33-.84-.33Z" fill="#090400"/><path d="M40.53,36.9l-.59.61v.81h-.42v-3.97h.42v2.61l1.45-1.46h.49l-1.05,1.09,1.17,1.73h-.5l-.96-1.43Z" fill="#090400"/><path d="M44.3,38.33v-.44c-.22.3-.58.45-1.03.45-.58,0-.96-.37-.96-.85s.39-.8,1.05-.81h.93v-.18c0-.41-.26-.66-.75-.66-.31,0-.6.12-.89.33l-.18-.29c.36-.24.67-.38,1.15-.38.7,0,1.08.37,1.09.97v1.86s-.4,0-.4,0ZM44.29,37.36v-.34h-.88c-.47,0-.72.14-.72.46s.25.52.65.52c.48,0,.84-.24.95-.64Z" fill="#090400"/><path d="M48.23,35.52v2.52c0,.82-.56,1.34-1.42,1.34-.44,0-.81-.15-1.15-.41l.19-.3c.28.23.57.35.95.36.61,0,1.02-.38,1.02-.97v-.43c-.2.37-.56.59-1.04.59-.76,0-1.28-.56-1.28-1.36s.52-1.34,1.27-1.35c.48,0,.84.21,1.05.59v-.57h.42ZM47.82,36.86c0-.59-.4-1.01-.96-1.01s-.96.42-.97,1.01c0,.58.4,1.01.97,1.01s.96-.42.96-1.01Z" fill="#090400"/><path d="M49.8,34.71c0,.16-.12.28-.27.28s-.27-.12-.27-.28.12-.28.27-.28.27.12.27.28ZM49.73,35.52v2.81h-.41v-2.81h.41Z" fill="#090400"/><path d="M53.47,36.6v1.73h-.42v-1.63c0-.5-.3-.8-.8-.8-.56,0-.9.37-.95.92v1.51h-.42v-2.81h.42v.62c.2-.43.58-.63,1.09-.64.67,0,1.07.41,1.07,1.1Z" fill="#090400"/><path d="M57,35.52v2.52c0,.82-.56,1.34-1.42,1.34-.44,0-.81-.15-1.15-.41l.19-.3c.28.23.57.35.95.36.61,0,1.02-.38,1.02-.97v-.43c-.2.37-.56.59-1.04.59-.76,0-1.28-.56-1.28-1.36s.52-1.34,1.27-1.35c.48,0,.84.21,1.05.59v-.57h.42ZM56.58,36.86c0-.59-.4-1.01-.96-1.01s-.96.42-.97,1.01c0,.58.4,1.01.97,1.01s.96-.42.96-1.01Z" fill="#090400"/><path d="M60.84,34.99c-.48,0-.8.19-.8.51,0,.97,2.11.47,2.1,1.82,0,.62-.55,1.02-1.35,1.02-.55,0-1.08-.24-1.43-.57l.19-.37c.35.33.82.52,1.25.52.54,0,.88-.22.88-.58,0-1-2.1-.47-2.1-1.81,0-.59.52-.96,1.29-.96.43,0,.88.14,1.19.35l-.18.38c-.34-.22-.73-.31-1.03-.31Z" fill="#090400"/><path d="M65.54,37.08h-2.3c.07.56.47.92,1.02.92.35,0,.65-.13.87-.36l.23.24c-.27.29-.66.47-1.13.47-.83,0-1.4-.58-1.4-1.42s.58-1.42,1.4-1.42c.91,0,1.36.63,1.32,1.58ZM65.16,36.75c-.03-.55-.39-.9-.94-.9s-.92.35-.98.9h1.92Z" fill="#090400"/><path d="M67.83,35.5v.41c-.59-.01-.96.36-1.01.93v1.5h-.42v-2.81h.42v.63c.19-.41.53-.64,1.01-.64Z" fill="#090400"/><path d="M68.64,35.52l.9,2.39.89-2.39h.42l-1.11,2.81h-.43l-1.12-2.81h.44Z" fill="#090400"/><path d="M71.96,34.71c0,.16-.12.28-.27.28s-.27-.12-.27-.28.12-.28.27-.28.27.12.27.28ZM71.9,35.52v2.81h-.41v-2.81h.41Z" fill="#090400"/><path d="M74.19,35.88c-.58,0-1,.43-1,1.05s.42,1.05,1,1.05c.37,0,.67-.13.87-.36l.24.25c-.25.3-.64.49-1.13.49-.82,0-1.4-.58-1.4-1.42s.58-1.42,1.4-1.42c.45,0,.83.16,1.09.42l-.23.29c-.21-.21-.5-.33-.84-.33Z" fill="#090400"/><path d="M78.5,37.08h-2.3c.07.56.47.92,1.02.92.35,0,.65-.13.87-.36l.23.24c-.27.29-.66.47-1.13.47-.83,0-1.4-.58-1.4-1.42s.58-1.42,1.4-1.42c.91,0,1.36.63,1.32,1.58ZM78.12,36.75c-.03-.55-.39-.9-.94-.9s-.92.35-.98.9h1.92Z" fill="#090400"/><path d="M80.08,35.85c-.32,0-.56.11-.56.38,0,.64,1.57.31,1.57,1.32,0,.55-.49.8-1.03.8-.4,0-.81-.14-1.08-.4l.16-.3c.24.22.6.36.94.36s.6-.13.6-.41c.02-.68-1.56-.34-1.56-1.33,0-.53.47-.76.98-.76.34,0,.66.1.9.26l-.16.32c-.22-.14-.5-.22-.76-.22Z" fill="#090400"/><path d="M8.87,6.75h3.39l.58,6.92,3.75-6.96h2.83l.82,6.96,3.55-6.92h3.56l-6.54,12.05h-2.95l-.9-6.82-3.79,6.82h-2.91l-1.39-12.05Z" fill="#fff"/><path d="M28.58,14.99c.12.91.71,1.52,1.82,1.52.64,0,1.23-.22,1.89-.73l1.58,1.78c-.89.82-2.08,1.38-3.66,1.38-2.71,0-4.46-1.61-4.59-4.1-.08-1.45.44-2.94,1.43-3.98.9-.97,2.19-1.59,3.78-1.59,2.69,0,3.98,1.81,4.08,3.81.03.63-.07,1.3-.26,1.91h-6.1ZM28.73,13.33h3.29c.04-.15.05-.32.04-.51-.03-.63-.47-1.16-1.3-1.16-.54,0-1.06.21-1.44.63-.26.27-.46.62-.59,1.04Z" fill="#fff"/><path d="M37.9,7h3.78c1.91,0,3.16.37,4.05,1.24.65.6.99,1.41,1.04,2.38.07,1.27-.31,2.33-1.08,3.15-.94,1-2.51,1.59-4.43,1.59h-1.92l-.72,3.36h-3.24l2.52-11.72ZM41.71,9.73h-1.19l-.65,3.1h1.23c.9,0,1.58-.23,2.01-.67.28-.32.41-.7.39-1.16-.02-.32-.15-.62-.38-.84-.31-.3-.8-.44-1.4-.44Z" fill="#fff"/><path d="M46.49,16.44c-.05-.87.22-1.59.72-2.13.66-.69,1.72-1.07,3.06-1.07.81,0,1.57.13,2.29.35l.03-.12c.04-.15.06-.35.05-.55-.03-.6-.48-.97-1.58-.97-.85,0-1.78.18-2.4.44l-.57-2.29c.93-.34,2.19-.55,3.49-.55,2.69,0,4.06,1.07,4.15,2.86.02.44-.02.87-.11,1.32l-1.07,4.99h-3.1l.21-.99c-.72.74-1.5,1.17-2.54,1.17-1.46,0-2.56-.97-2.63-2.46ZM52.24,15.3l.07-.3c-.34-.12-.76-.22-1.19-.22-.56,0-1,.17-1.27.45-.2.22-.32.52-.3.87.03.52.41.84.94.84.81,0,1.56-.72,1.76-1.64Z" fill="#fff"/><path d="M56.63,14.95c-.08-1.52.45-2.88,1.39-3.88.93-.99,2.24-1.59,3.73-1.59,2.07,0,3.38,1.09,3.93,2.48l-2.39,1.29c-.35-.7-.81-1.14-1.6-1.14-.51,0-.97.23-1.31.6-.47.5-.76,1.29-.72,2.09.05.92.68,1.51,1.47,1.51.65,0,1.11-.28,1.65-.84l2,1.69c-.86,1.07-1.95,1.77-3.74,1.77-2.42,0-4.28-1.52-4.41-3.98Z" fill="#fff"/><path d="M68.01,6.5h3.14l-1.28,5.98,2.86-2.81h3.8l-3.94,3.7,2.04,5.36h-3.37l-1.13-3.23-1.12,1.07-.47,2.16h-3.15l2.63-12.22Z" fill="#fff"/></svg>